<?xml version="1.0" standalone="no"?>
<!DOCTYPE svg PUBLIC "-//W3C//DTD SVG 20010904//EN"
 "http://www.w3.org/TR/2001/REC-SVG-20010904/DTD/svg10.dtd">
<svg version="1.0" xmlns="http://www.w3.org/2000/svg"
 width="512.000000pt" height="512.000000pt" viewBox="0 0 512.000000 512.000000"
 preserveAspectRatio="xMidYMid meet">
<metadata>
Created by potrace 1.16, written by Peter Selinger 2001-2019
</metadata>
<g transform="translate(0.000000,512.000000) scale(0.100000,-0.100000)"
fill="#000000" stroke="none">
<path d="M2235 5105 c-462 -60 -885 -237 -1255 -523 -117 -91 -316 -287 -413
-407 -276 -342 -459 -746 -537 -1186 -28 -156 -39 -531 -21 -702 43 -399 182
-790 398 -1122 98 -150 184 -257 318 -394 419 -430 948 -690 1550 -760 134
-16 460 -13 605 4 1160 144 2081 1065 2225 2225 20 162 20 478 0 640 -92 744
-509 1411 -1140 1826 -329 216 -695 350 -1085 399 -152 18 -501 18 -645 0z
m493 -1031 c257 -53 485 -235 596 -476 65 -139 68 -164 75 -492 l6 -299 45
-15 c29 -10 64 -35 101 -71 92 -93 89 -69 89 -691 0 -622 3 -598 -90 -692 -93
-93 -36 -88 -991 -88 -953 0 -894 -5 -990 90 -92 91 -89 68 -89 690 0 622 -3
598 89 691 37 36 72 61 101 71 l45 15 6 299 c7 328 10 353 75 492 109 238 337
421 589 475 93 20 248 21 343 1z"/>
<path d="M2455 3645 c-27 -8 -53 -14 -56 -15 -26 -1 -136 -91 -169 -138 -71
-99 -80 -147 -80 -433 l0 -249 410 0 410 0 0 249 c0 220 -2 256 -20 313 -37
119 -134 222 -250 264 -64 22 -184 27 -245 9z"/>
<path d="M2479 2357 c-132 -49 -199 -152 -186 -285 6 -72 33 -127 86 -175 l41
-37 0 -145 0 -145 140 0 140 0 0 145 0 145 41 37 c54 49 81 104 87 179 9 114
-40 205 -138 258 -62 34 -155 44 -211 23z"/>
</g>
</svg>
